<svg xmlns="http://www.w3.org/2000/svg" height="236.01" viewBox="0 0 250 236.01309" width="250"><g transform="matrix(1.25 0 0 -1.25 -184.69 526.9)"><g><path d="m103.92 1.1484c-0.7-0.0173-1.29 0.1672-1.73 0.3868-3.051 1.5007-3.485 6.7118-1.97 10.447 1.73 4.265 10.59 25.237 12.32 29.34 0.18 0.422 0.09 0.908-0.24 1.233l-4.83 4.838c-1.02 1.017-1.02 2.668 0 3.685l0.37 0.371c0.59 0.59 0.92 1.389 0.92 2.223v5.568c-10.23-2.87-23.102-2.432-35.071 1.276-14.168 4.389-25.408 12.686-31.744 23.412-0.314 0.533-0.481 1.142-0.506 1.761-0.017 0.421 0.05 0.843 0.165 1.249 5.895 20.882 16.167 33.332 23.796 40.122 8.461 7.54 15.517 9.94 15.813 10.04l0.459 0.15 0.476-0.07c2.735-0.42 5.332-1.59 7.192-2.62 10.124 11.63 31.15 19.67 37.38 21.58 1.14 0.36 2.34 0.39 3.46 0 28.71-9.8 39.9-24.17 39.9-24.17 1.14 1.55 2.48 3.15 3.93 4.49 0.27 0.25 0.5 0.49 0.71 0.72h0.03 0.01c5.67 5.38 10.99 7.65 18.83 9.89 0.71 0.2 1.49 0.15 2.14-0.21 0.64-0.35 1.03-0.88 1.47-1.45 9.37-11.99 10.97-25.34 5.19-51.785-3.7-16.878-12.46-35.936-14.54-39.24-1.88-2.976-6.04-6.659-9.41-5.52-1.86 0.626-3.13 1.828-3.94 3.022-1.49-0.671-3.37-1.039-5.18-0.291-2.53 1.046-3.34 2.9-4.26 5.252-2.23-0.406-4.96-0.14-6.34 1.99-1.44 2.24-2.15 4.72-2.13 7.4-3.61-0.083-7.12 0.391-8.7 0.946v-13.346c0-0.834 0.33-1.633 0.92-2.223l0.65-0.656c0.99-0.981 0.57-2.648-0.36-3.678l-4.73-4.732c-0.33-0.325-0.43-0.81-0.25-1.233 2.54-5.975 10.62-24.777 12.47-29.334 1.52-3.7359 1.08-8.9461-1.97-10.447-1.42-0.70431-4.3-1.0556-7.54 4.4748-2.9 4.9752-6.02 7.6262-8.77 9.9652-2.82 2.397-5.48 4.661-7.17 8.705-0.26 0.62-0.82 2.112-1.23 4.086-0.1 0.465-0.19 1.265-0.19 1.265-0.97 0.235-1.69 0.598-2.3 1.018-0.09-0.593-0.31-1.689-0.44-2.274-0.3-1.379-0.74-2.741-1.3-4.095-1.7-4.044-4.36-6.308-7.18-8.705-2.75-2.339-5.86-4.99-8.77-9.9652-2.23-3.8028-4.28-4.8232-5.81-4.8614zm-96.832 160.76c-0.0687 0-0.1253 0.02-0.1699 0.07-0.0447 0.04-0.0664 0.1-0.0664 0.17v6.21c0 0.11 0.0399 0.21 0.1211 0.28l0.6503 0.66c0.083 0.09 0.1831 0.13 0.3008 0.13h2.3592c0.117 0 0.217-0.04 0.299-0.13l0.66-0.66c0.075-0.07 0.113-0.17 0.113-0.28v-6.21c0-0.07-0.021-0.13-0.066-0.17-0.044-0.05-0.102-0.07-0.17-0.07h-1.021c-0.069 0-0.1248 0.02-0.1703 0.07-0.0446 0.04-0.0664 0.1-0.0664 0.17v5.64c0 0.03-0.0188 0.07-0.0527 0.1l-0.1328 0.15c-0.041 0.02-0.0768 0.04-0.1035 0.04h-0.9278c-0.0347 0-0.0731-0.02-0.1133-0.04l-0.1347-0.15c-0.0268-0.03-0.041-0.06-0.041-0.1v-5.64c0-0.07-0.0242-0.13-0.0723-0.17-0.0473-0.05-0.1052-0.07-0.1738-0.07h-1.0215zm12.144 0c-0.068 0-0.125 0.02-0.17 0.07-0.044 0.04-0.068 0.1-0.068 0.17v7.04c0 0.07 0.024 0.13 0.068 0.17 0.045 0.05 0.102 0.07 0.17 0.07h1.032c0.067 0 0.125-0.02 0.17-0.07 0.044-0.04 0.066-0.1 0.066-0.17v-3.49c0-0.02 0.007-0.03 0.021-0.03 0.013 0 0.024 0 0.032 0.02l1.443 3.6c0.048 0.09 0.113 0.14 0.195 0.14h1.227c0.069 0 0.124-0.02 0.17-0.07 0.045-0.04 0.066-0.1 0.066-0.17v-7.04c0-0.07-0.021-0.13-0.066-0.17-0.046-0.05-0.101-0.07-0.17-0.07h-1.022c-0.068 0-0.125 0.02-0.173 0.07-0.048 0.04-0.073 0.1-0.073 0.17v3.49c0 0.02-0.008 0.03-0.021 0.03s-0.024 0-0.031-0.02l-1.442-3.6c-0.014-0.05-0.04-0.08-0.078-0.1-0.038-0.03-0.078-0.04-0.119-0.04h-1.227zm12.299 0c-0.068 0-0.125 0.02-0.17 0.07-0.044 0.04-0.066 0.1-0.066 0.17v7.04c0 0.07 0.022 0.13 0.066 0.17 0.045 0.05 0.102 0.07 0.17 0.07h1.031c0.061 0 0.117-0.02 0.165-0.07 0.048-0.04 0.072-0.1 0.072-0.17v-7.04c0-0.07-0.024-0.13-0.072-0.17-0.048-0.05-0.104-0.07-0.165-0.07h-1.031zm8.867 0c-0.048 0-0.091 0.02-0.125 0.06-0.033 0.04-0.05 0.08-0.05 0.13v0.03l1.349 7.1c0.007 0.06 0.034 0.1 0.082 0.14h0.002c0.049 0.04 0.099 0.06 0.155 0.06h1.66c0.055 0 0.105-0.02 0.154-0.06 0.048-0.04 0.075-0.08 0.082-0.14l1.34-7.1c0.013-0.06 0.002-0.11-0.035-0.15-0.039-0.05-0.086-0.07-0.141-0.07h-1.07c-0.047 0-0.094 0.02-0.135 0.05-0.041 0.04-0.065 0.08-0.072 0.13l-0.928 5.03c0 0.01-0.008 0.02-0.025 0.02s-0.028-0.01-0.028-0.02l-0.937-5.04c-0.014-0.05-0.039-0.09-0.076-0.12-0.038-0.03-0.081-0.05-0.129-0.05h-1.073zm12.321 0c-0.064 0-0.118 0.02-0.166 0.07s-0.073 0.1-0.073 0.17v7.04c0 0.07 0.025 0.13 0.073 0.17 0.048 0.05 0.103 0.07 0.166 0.07h3.349c0.07 0 0.128-0.02 0.176-0.07 0.048-0.04 0.072-0.1 0.072-0.17v-0.88c0-0.06-0.024-0.12-0.072-0.17-0.048-0.04-0.106-0.06-0.176-0.06h-1.959c-0.034 0-0.063-0.01-0.088-0.04-0.024-0.02-0.035-0.05-0.035-0.09v-1.48c0-0.04 0.011-0.06 0.035-0.09 0.025-0.02 0.054-0.03 0.088-0.03h1.287c0.07 0 0.128-0.03 0.172-0.07 0.045-0.05 0.067-0.1 0.067-0.17v-0.88c0-0.07-0.022-0.12-0.067-0.17-0.044-0.04-0.102-0.06-0.172-0.06h-1.287c-0.034 0-0.063-0.02-0.088-0.04-0.024-0.03-0.035-0.06-0.035-0.09v-1.48c0-0.04 0.011-0.07 0.035-0.09 0.025-0.03 0.054-0.04 0.088-0.04h1.959c0.07 0 0.128-0.02 0.176-0.06 0.048-0.05 0.072-0.1 0.072-0.17v-0.88c0-0.07-0.024-0.12-0.072-0.17s-0.106-0.07-0.176-0.07h-3.349zm11.463 0c-0.069 0-0.126 0.02-0.17 0.07s-0.069 0.1-0.069 0.17v7.04c0 0.07 0.025 0.13 0.069 0.17 0.044 0.05 0.101 0.07 0.17 0.07h1.031c0.061 0 0.117-0.02 0.166-0.07 0.047-0.04 0.072-0.1 0.072-0.17v-2.49c0-0.04 0.01-0.07 0.035-0.09 0.023-0.03 0.053-0.04 0.088-0.04h0.506c0.082 0 0.139 0.04 0.174 0.12l1 2.6c0.035 0.09 0.099 0.14 0.195 0.14h1.072c0.049 0 0.091-0.02 0.125-0.05 0.034-0.04 0.051-0.08 0.051-0.13 0-0.03-0.003-0.06-0.009-0.07l-1.01-2.66c-0.015-0.03-0.007-0.07 0.019-0.09l0.639-0.64c0.083-0.08 0.123-0.18 0.123-0.3v-2.51c0-0.1-0.04-0.2-0.123-0.29l-0.658-0.65c-0.083-0.09-0.184-0.13-0.301-0.13h-3.195zm13.021 0c-0.118 0-0.218 0.04-0.301 0.13l-0.648 0.65c-0.082 0.08-0.125 0.18-0.125 0.29v1.89c0 0.15 0.066 0.27 0.197 0.36l2.576 1.63c0.056 0.04 0.084 0.08 0.084 0.15v0.78c0 0.04-0.013 0.07-0.041 0.1l-0.144 0.14c-0.021 0.03-0.056 0.05-0.104 0.05h-0.773c-0.041 0-0.08-0.02-0.113-0.05l-0.135-0.14c-0.027-0.03-0.039-0.06-0.039-0.1v-0.47c0-0.04-0.015-0.09-0.041-0.12-0.029-0.04-0.068-0.06-0.116-0.07l-1.113-0.34c-0.062-0.01-0.118 0-0.166 0.03s-0.072 0.08-0.072 0.14v1.4c0 0.11 0.043 0.21 0.125 0.28l0.66 0.66c0.069 0.09 0.168 0.13 0.299 0.13h2.207c0.116 0 0.217-0.04 0.299-0.13l0.648-0.66c0.083-0.07 0.123-0.17 0.123-0.28v-2.05c0-0.15-0.065-0.27-0.195-0.36l-2.576-1.62c-0.055-0.04-0.082-0.09-0.082-0.15v-0.63c0-0.05 0.012-0.08 0.039-0.1l0.135-0.15c0.041-0.02 0.079-0.04 0.113-0.04h0.773c0.042 0 0.076 0.02 0.104 0.04l0.144 0.15c0.028 0.02 0.041 0.05 0.041 0.1v0.46c0 0.04 0.014 0.09 0.041 0.12 0.028 0.04 0.065 0.07 0.114 0.08l1.113 0.34c0.061 0.02 0.117 0.01 0.166-0.03 0.046-0.03 0.072-0.08 0.072-0.14v-1.4c0-0.11-0.042-0.21-0.125-0.29l-0.658-0.65c-0.077-0.09-0.177-0.13-0.301-0.13h-2.205zm11.154 0c-0.069 0-0.125 0.02-0.169 0.07-0.045 0.05-0.067 0.1-0.067 0.17v7.04c0 0.07 0.022 0.13 0.067 0.17 0.044 0.05 0.1 0.07 0.169 0.07h1.032c0.061 0 0.116-0.02 0.164-0.07 0.048-0.04 0.072-0.1 0.072-0.17v-7.04c0-0.07-0.024-0.12-0.072-0.17-0.047-0.05-0.103-0.07-0.164-0.07h-1.032zm9.135 0c-0.069 0-0.127 0.02-0.172 0.07-0.043 0.05-0.066 0.1-0.066 0.17v0.88c0 0.07 0.023 0.12 0.066 0.17 0.045 0.04 0.104 0.06 0.172 0.06h1c0.034 0 0.061 0.01 0.082 0.04 0.021 0.02 0.031 0.05 0.031 0.09v5.8c0 0.07 0.025 0.13 0.073 0.17 0.048 0.05 0.106 0.07 0.174 0.07h1.021c0.068 0 0.124-0.02 0.167-0.07 0.05-0.04 0.07-0.1 0.07-0.17v-5.8c0-0.04 0.01-0.07 0.04-0.09 0.02-0.03 0.05-0.04 0.08-0.04h0.99c0.07 0 0.13-0.02 0.17-0.06 0.05-0.05 0.07-0.1 0.07-0.17v-0.88c0-0.07-0.02-0.12-0.07-0.17-0.04-0.05-0.1-0.07-0.17-0.07h-3.728zm11.588 0c-0.06 0-0.1 0.02-0.13 0.05-0.04 0.04-0.06 0.08-0.06 0.14 0 0.03 0.01 0.05 0.01 0.06l1.68 4.17 0.02 0.05v2.81c0 0.07 0.02 0.13 0.06 0.17 0.05 0.05 0.1 0.07 0.17 0.07h1.02c0.07 0 0.13-0.02 0.18-0.07 0.05-0.04 0.07-0.1 0.07-0.17v-2.8-0.04l1.68-4.19c0.02-0.06 0.01-0.12-0.02-0.17-0.04-0.05-0.08-0.08-0.14-0.08h-1.24c-0.1 0-0.16 0.05-0.2 0.14l-0.81 2.13c-0.01 0.01-0.02 0.02-0.03 0.02s-0.02-0.01-0.02-0.02l-0.82-2.13c-0.03-0.09-0.1-0.14-0.19-0.14h-1.23zm22.19 0c-0.12 0-0.22 0.04-0.3 0.13l-0.65 0.65c-0.08 0.08-0.13 0.18-0.13 0.29v5.38c0 0.11 0.05 0.21 0.13 0.28l0.65 0.66c0.08 0.09 0.18 0.13 0.3 0.13h2.51c0.12 0 0.22-0.04 0.29-0.13l0.66-0.66c0.08-0.07 0.12-0.17 0.12-0.28v-5.38c0-0.11-0.04-0.21-0.12-0.29l-0.66-0.65c-0.07-0.09-0.17-0.13-0.29-0.13h-2.51zm11.35 0c-0.06 0-0.12 0.02-0.16 0.07-0.05 0.05-0.07 0.1-0.07 0.17v7.04c0 0.07 0.02 0.13 0.07 0.17 0.04 0.05 0.1 0.07 0.16 0.07h1.04c0.06 0 0.11-0.02 0.16-0.07 0.05-0.04 0.07-0.1 0.07-0.17v-2.72c0-0.04 0.02-0.06 0.04-0.09 0.02-0.02 0.05-0.03 0.09-0.03h1.29c0.07 0 0.12-0.03 0.17-0.07 0.04-0.05 0.06-0.1 0.06-0.17v-0.88c0-0.07-0.02-0.12-0.06-0.17-0.05-0.04-0.1-0.06-0.17-0.06h-1.29c-0.04 0-0.07-0.02-0.09-0.04-0.02-0.03-0.04-0.06-0.04-0.09v-1.48c0-0.04 0.02-0.07 0.04-0.09 0.02-0.03 0.05-0.04 0.09-0.04h1.97c0.06 0 0.11-0.02 0.16-0.06 0.05-0.05 0.07-0.1 0.07-0.17v-0.88c0-0.07-0.02-0.12-0.07-0.17s-0.1-0.07-0.16-0.07h-3.37zm20.54 0c-0.06 0-0.11 0.02-0.16 0.07s-0.07 0.1-0.07 0.17v7.04c0 0.06 0.02 0.12 0.07 0.17 0.05 0.04 0.1 0.07 0.16 0.07h1.03c0.07 0 0.12-0.02 0.17-0.07 0.05-0.04 0.07-0.1 0.07-0.17v-4.23c0-0.01 0.01-0.02 0.02-0.02 0.02-0.01 0.03 0 0.03 0.01l1.25 2.35c0.03 0.07 0.09 0.1 0.16 0.1h0.09c0.07 0 0.13-0.03 0.15-0.1l1.25-2.35c0.01-0.01 0.02-0.02 0.04-0.01 0.01 0 0.02 0.01 0.02 0.02v4.23c0 0.07 0.02 0.13 0.07 0.17 0.04 0.05 0.1 0.07 0.17 0.07h1.02c0.07 0 0.13-0.02 0.17-0.07 0.04-0.04 0.07-0.1 0.07-0.17v-7.04c0-0.07-0.03-0.12-0.07-0.17s-0.1-0.07-0.17-0.07h-1.19c-0.09 0-0.15 0.04-0.18 0.12l-1.37 2.55c-0.01 0.01-0.02 0.01-0.03 0.01s-0.02 0-0.03-0.01l-1.36-2.55c-0.04-0.08-0.1-0.12-0.18-0.12h-1.2zm13.65 0c-0.07 0-0.12 0.02-0.17 0.07-0.04 0.05-0.07 0.1-0.07 0.17v7.04c0 0.07 0.03 0.13 0.07 0.17 0.05 0.05 0.1 0.07 0.17 0.07h1.03c0.07 0 0.12-0.02 0.17-0.07 0.05-0.04 0.07-0.1 0.07-0.17v-7.04c0-0.07-0.02-0.12-0.07-0.17s-0.1-0.07-0.17-0.07h-1.03zm9.97 0c-0.12 0-0.22 0.04-0.3 0.13l-0.65 0.65c-0.08 0.08-0.12 0.18-0.12 0.29v1.89c0 0.15 0.07 0.27 0.2 0.36l2.57 1.63c0.06 0.04 0.08 0.08 0.08 0.15v0.78c0 0.04-0.01 0.07-0.04 0.1l-0.14 0.14c-0.02 0.03-0.05 0.05-0.1 0.05h-0.78c-0.04 0-0.08-0.02-0.11-0.05l-0.13-0.14c-0.03-0.03-0.05-0.06-0.05-0.1v-0.47c0-0.04-0.01-0.09-0.04-0.12-0.02-0.04-0.06-0.06-0.11-0.07l-1.11-0.34c-0.07-0.01-0.12 0-0.17 0.03s-0.07 0.08-0.07 0.14v1.4c0 0.11 0.04 0.21 0.12 0.28l0.66 0.66c0.07 0.09 0.17 0.13 0.3 0.13h2.21c0.11 0 0.22-0.04 0.3-0.13l0.65-0.66c0.08-0.07 0.12-0.17 0.12-0.28v-2.05c0-0.15-0.06-0.27-0.19-0.36l-2.58-1.62c-0.06-0.04-0.09-0.09-0.09-0.15v-0.63c0-0.05 0.02-0.08 0.05-0.1l0.13-0.15c0.04-0.02 0.08-0.04 0.11-0.04h0.78c0.04 0 0.07 0.02 0.1 0.04l0.14 0.15c0.03 0.02 0.04 0.05 0.04 0.1v0.46c0 0.04 0.02 0.09 0.05 0.12 0.02 0.04 0.06 0.07 0.11 0.08l1.11 0.34c0.06 0.02 0.12 0.01 0.17-0.03 0.05-0.03 0.07-0.08 0.07-0.14v-1.4c0-0.11-0.04-0.21-0.12-0.29l-0.66-0.65c-0.08-0.09-0.18-0.13-0.3-0.13h-2.21zm11.99 0c-0.12 0-0.22 0.04-0.3 0.13l-0.65 0.65c-0.08 0.08-0.12 0.18-0.12 0.29v1.89c0 0.15 0.06 0.27 0.19 0.36l2.58 1.63c0.06 0.04 0.08 0.08 0.08 0.15v0.78c0 0.04-0.01 0.07-0.04 0.1l-0.14 0.14c-0.02 0.03-0.05 0.05-0.1 0.05h-0.78c-0.04 0-0.07-0.02-0.11-0.05l-0.13-0.14c-0.03-0.03-0.04-0.06-0.04-0.1v-0.47c0-0.04-0.02-0.09-0.05-0.12-0.02-0.04-0.06-0.06-0.11-0.07l-1.11-0.34c-0.06-0.01-0.12 0-0.17 0.03s-0.07 0.08-0.07 0.14v1.4c0 0.11 0.04 0.21 0.12 0.28l0.66 0.66c0.07 0.09 0.17 0.13 0.3 0.13h2.21c0.11 0 0.22-0.04 0.3-0.13l0.65-0.66c0.08-0.07 0.12-0.17 0.12-0.28v-2.05c0-0.15-0.07-0.27-0.19-0.36l-2.58-1.62c-0.06-0.04-0.08-0.09-0.08-0.15v-0.63c0-0.05 0.01-0.08 0.04-0.1l0.13-0.15c0.04-0.02 0.08-0.04 0.11-0.04h0.78c0.04 0 0.07 0.02 0.1 0.04l0.14 0.15c0.03 0.02 0.04 0.05 0.04 0.1v0.46c0 0.04 0.02 0.09 0.05 0.12 0.02 0.04 0.06 0.07 0.11 0.08l1.11 0.34c0.07 0.02 0.12 0.01 0.17-0.03 0.05-0.03 0.07-0.08 0.07-0.14v-1.4c0-0.11-0.04-0.21-0.12-0.29l-0.66-0.65c-0.08-0.09-0.18-0.13-0.3-0.13h-2.21zm11.89 0c-0.12 0-0.22 0.04-0.3 0.13l-0.65 0.65c-0.08 0.08-0.12 0.18-0.12 0.29v5.38c0 0.11 0.04 0.21 0.12 0.28l0.65 0.66c0.08 0.09 0.18 0.13 0.3 0.13h2.52c0.12 0 0.21-0.04 0.28-0.13l0.66-0.66c0.09-0.07 0.13-0.17 0.13-0.28v-5.38c0-0.11-0.04-0.21-0.13-0.29l-0.66-0.65c-0.07-0.09-0.16-0.13-0.28-0.13h-2.52zm11.36 0c-0.07 0-0.13 0.02-0.17 0.07-0.05 0.05-0.07 0.1-0.07 0.17v6.21c0 0.11 0.05 0.21 0.13 0.28l0.65 0.66c0.08 0.09 0.18 0.13 0.3 0.13h2.35c0.12 0 0.22-0.04 0.3-0.13l0.67-0.66c0.07-0.07 0.11-0.17 0.11-0.28v-6.21c0-0.07-0.02-0.12-0.07-0.17-0.04-0.05-0.1-0.07-0.17-0.07h-1.02c-0.07 0-0.13 0.02-0.17 0.07-0.05 0.05-0.07 0.1-0.07 0.17v5.64c0 0.03-0.01 0.07-0.05 0.1l-0.13 0.15c-0.04 0.02-0.08 0.04-0.1 0.04h-0.93c-0.04 0-0.08-0.02-0.12-0.04l-0.13-0.15c-0.03-0.03-0.04-0.06-0.04-0.1v-5.64c0-0.07-0.03-0.12-0.08-0.17-0.04-0.05-0.1-0.07-0.17-0.07h-1.02zm12.14 0c-0.06 0-0.12 0.02-0.17 0.07-0.04 0.05-0.06 0.1-0.06 0.17v7.04c0 0.07 0.02 0.13 0.06 0.17 0.05 0.05 0.11 0.07 0.17 0.07h1.04c0.06 0 0.11-0.02 0.16-0.07 0.05-0.04 0.07-0.1 0.07-0.17v-2.49c0-0.04 0.01-0.07 0.04-0.09 0.02-0.02 0.05-0.04 0.09-0.04h0.5c0.08 0 0.14 0.04 0.18 0.12l1 2.6c0.03 0.09 0.1 0.14 0.19 0.14h1.07c0.05 0 0.09-0.02 0.13-0.05 0.03-0.04 0.05-0.08 0.05-0.13 0-0.03 0-0.06-0.01-0.07l-1.01-2.66c-0.01-0.03-0.01-0.07 0.02-0.09l0.64-0.64c0.08-0.08 0.12-0.18 0.12-0.3v-2.51c0-0.1-0.04-0.2-0.12-0.29l-0.66-0.65c-0.08-0.09-0.18-0.13-0.3-0.13h-3.2zm12.19 0c-0.07 0-0.13 0.02-0.17 0.07-0.05 0.05-0.07 0.1-0.07 0.17v7.04c0 0.07 0.02 0.13 0.07 0.17 0.04 0.05 0.1 0.07 0.17 0.07h1.03c0.06 0 0.12-0.02 0.16-0.07 0.05-0.04 0.08-0.1 0.08-0.17v-7.04c0-0.07-0.03-0.12-0.08-0.17-0.04-0.05-0.1-0.07-0.16-0.07h-1.03zm-180.78 1.35h1.092c0.028 0 0.063 0.02 0.104 0.04l0.134 0.15c0.034 0.02 0.051 0.05 0.051 0.1v1.38c0 0.04-0.017 0.07-0.051 0.11l-0.134 0.13c-0.035 0.03-0.069 0.05-0.104 0.05h-1.092c-0.035 0-0.064-0.01-0.088-0.03-0.024-0.03-0.035-0.06-0.035-0.09v-1.71c0-0.04 0.01-0.07 0.035-0.09 0.023-0.03 0.053-0.04 0.088-0.04zm66.416 0h1.07c0.03 0 0.07 0.02 0.11 0.04l0.14 0.15c0.02 0.02 0.04 0.05 0.04 0.1v4.24c0 0.04-0.02 0.07-0.04 0.1l-0.14 0.14c-0.03 0.03-0.07 0.05-0.11 0.05h-1.07c-0.04 0-0.08-0.02-0.12-0.05l-0.13-0.14c-0.03-0.03-0.04-0.06-0.04-0.1v-4.24c0-0.05 0.01-0.08 0.04-0.1l0.13-0.15c0.04-0.02 0.08-0.04 0.12-0.04zm79.39 0h1.07c0.04 0 0.08 0.02 0.12 0.04l0.13 0.15c0.03 0.02 0.04 0.05 0.04 0.1v4.24c0 0.04-0.01 0.07-0.04 0.1l-0.13 0.14c-0.04 0.03-0.07 0.05-0.12 0.05h-1.07c-0.04 0-0.08-0.02-0.11-0.05l-0.14-0.14c-0.03-0.03-0.04-0.06-0.04-0.1v-4.24c0-0.05 0.01-0.08 0.04-0.1l0.14-0.15c0.04-0.02 0.08-0.04 0.11-0.04zm24.18 0h1.09c0.03 0 0.06 0.02 0.1 0.04l0.14 0.15c0.03 0.02 0.05 0.05 0.05 0.1v1.38c0 0.04-0.02 0.07-0.05 0.11l-0.14 0.13c-0.03 0.03-0.07 0.05-0.1 0.05h-1.09c-0.04 0-0.07-0.01-0.09-0.03-0.03-0.03-0.04-0.06-0.04-0.09v-1.71c0-0.04 0.01-0.07 0.04-0.09 0.02-0.03 0.05-0.04 0.09-0.04zm-234.71 11.55l1.9004 1.99c1.8334 1.93 2.8675 4.11 2.9121 6.13v19.56h11.709v-7.21l6.859 7.21h13.815v-1.91l-12.619-12.65 10.699-11.23v-1.89h-13.639l-5.115 6.28v-6.28h-16.521zm49.791 0l1.902 1.99c0.819 0.87 1.511 1.72 2.064 2.55l-10.443 21.62v1.52h11.564l1.493-3.42h10.386l1.36 3.42h11.724v-1.52l-12.634-26.16h-17.416zm33.355 0l1.9 1.99c2.132 2.24 3.405 4.45 3.496 6.08v19.61h11.714v-11.44l10.35 11.44h10.92v-27.68h-17.11l1.9 1.99c2.14 2.25 3.41 4.47 3.5 6.09v2.44l-10.35-10.52h-16.32zm53.63 0c-1.3 0-2.37 0.43-3.18 1.28-0.78 0.83-1.18 1.92-1.18 3.25v6.52c0 0.88 0.18 1.62 0.53 2.21 0.4 0.68 1.1 1.16 2.06 1.44l14.05 4.25h-4.93v-1.26l-11.71-1.48v6.94c0 1.32 0.4 2.41 1.18 3.25 0.81 0.85 1.88 1.28 3.18 1.28h22.93c1.31 0 2.37-0.43 3.18-1.28 0.78-0.84 1.18-1.93 1.18-3.25v-6.56c0-0.87-0.18-1.63-0.54-2.24-0.41-0.7-1.12-1.2-2.09-1.48l-13.86-4.15h4.79v1.26l11.7 1.48v-7.03c0-1.33-0.38-2.41-1.15-3.21-0.79-0.81-1.84-1.22-3.14-1.22h-23zm41.63 0l1.9 1.99c0.82 0.87 1.51 1.72 2.06 2.55l-10.44 21.62v1.52h11.57l1.49-3.42h10.38l1.36 3.42h11.73v-1.52l-12.64-26.16h-17.41zm42.3 0c-1.3 0-2.37 0.43-3.18 1.28-0.78 0.83-1.18 1.92-1.18 3.25v6.52c0 0.88 0.18 1.62 0.53 2.21 0.4 0.68 1.1 1.16 2.06 1.44l14.05 4.25h-4.93v-1.26l-11.71-1.48v6.94c0 1.32 0.4 2.41 1.18 3.25 0.81 0.85 1.88 1.28 3.18 1.28h22.93c1.31 0 2.38-0.43 3.18-1.28 0.79-0.84 1.18-1.93 1.18-3.25v-6.56c0-0.87-0.18-1.63-0.54-2.24-0.41-0.7-1.12-1.2-2.09-1.48l-13.86-4.15h4.79v1.26l11.7 1.48v-7.03c0-1.33-0.39-2.41-1.15-3.21-0.79-0.81-1.84-1.22-3.14-1.22h-23zm-159.16 12.34l1.289 3.06h-0.014l0.031 0.07c-0.875 0.09-1.862 0.28-2.836 0.58l0.008-0.02 1.522-3.69zm128.62 0l1.28 3.06h-0.01l0.03 0.07c-0.87 0.09-1.86 0.28-2.83 0.58l0.01-0.02 1.52-3.69zm-128.88 20.33c-1.318 0-2.378 0.44-3.151 1.31-0.737 0.82-1.111 1.91-1.111 3.22v18.62c0 1.31 0.374 2.39 1.111 3.22 0.772 0.87 1.832 1.31 3.151 1.31h24.388c1.31 0 2.377-0.44 3.17-1.29 0.77-0.83 1.159-1.92 1.159-3.24v-8.66l-11.707 1.48v2.49h-9.565v-9.24h9.565v2.49l11.707 1.48v-8.66c0-1.32-0.388-2.41-1.159-3.24-0.793-0.86-1.86-1.29-3.17-1.29h-24.388zm34.791 0l1.9 2c1.836 1.93 2.906 4.2 2.916 6.23v19.45h11.71v-27.68h-16.526zm25.526 0v9.55h10.67v18.13h11.71v-18.13h10.67v-9.55h-33.05zm40.56 0v1.8l12.06 16.34v9.54h11.71v-9.54l12.06-16.34v-1.8h-18.35l1.9 2c0.7 0.73 1.28 1.51 1.75 2.31l-3.22 4.82-6.09-9.13h-11.82z" transform="matrix(.8 0 0 -.8 147.75 421.52)" fill="#004b87"/><path d="m104.08 5.7988c-1.11 0.0168-1.57 2.2436-0.61 4.7342 1.11 2.903 8.64 21.911 11.59 29.367 0.52 1.332 1.12 2.847 0.11 3.87l-5.29 5.404 0.25 0.035v0.018c3.41 0.998 7.25 1.479 11.48 1.5 0 0-1.64 0.482-2.78 1.724-1.31 1.439-1.37 2.715-1.37 2.715-1.75-1.811-3.34-2.185-5.65-2.41-0.04 0.934-0.64 15 0 17.916 0.4 1.864 2.21 3.379 3.94 4.603 1.52 1.084 2.61 2.695 2.94 4.536 0.25 1.385 1.32 2.143 2.04 2.33 1.32 0.358 6.74 0.376 6.74-1.815 0-2.448 0.14-4.85-0.08-6.154-0.11-0.649-0.95-1.226-1.49-1.604-0.82-0.572-2.18-1.475-3.81-2.365-0.76-0.454-1.4-0.743-1.76-0.711-1.44 0.131-1.18 3.279-1.18 3.279s-1.31-1.574-1.31-4.066c0-0.835 0.25-1.679 0.59-2.435 0 0 0.32-0.671 0.33-0.688 1.41-2.73 3.39-4.84 3.39-4.84s-1.11 3.06 0.32 3.789l5.85 2.207s2.98-1.151 5.64-2.136c1.16-0.47 0.79-2.67 0.51-3.807-0.52-1.924-1.29-4.493-2.16-6.789-0.92-2.412-5.95-3.176-8.54-3.412 2.31-0.266 5.27-1.452 5.04-5.61-0.12-2.182-1.03-3.95-1.42-5.515-0.41-1.641-0.28-3.851 0.8-6.192-2.22 0.914-3.82 3.255-4.59 5.76 0 0-0.21-0.878-0.1-1.752 0.1-0.822 0.51-1.594 0.51-1.594-1.02 0.42-2.2 1.279-2.88 2.036-1.57 1.742-2.52 4.845-2.52 4.845s-3.71-4.958-3.5-11.275c0.06-1.906 0.59-3.606 0.55-5.262-5.61-4.068-6.96-10.691-6.96-10.691s2.96 5.262 6.64 7.693c-0.62-3.172-2.1-6.021-4.27-8.74-2.35-2.93-4.11-5.3379-5.16-6.9689-0.69-1.0887-1.33-1.5369-1.83-1.5293zm36.84 12.217s-4.49 2.923-6.33 6.949c-0.72 1.591-1.2 3.073-1.5 4.43 1.53 0.022 3.01 0.17 4.34 1.023 0.09 0.053 0.14 0.184 0.08 0.273-0.99 1.352-1.63 2.339-0.81 3.784 0.44 0.758 0.8 2.167 1.33 3.677 2.16-3.698 1.05-9.097 0.77-12.416-0.32-3.802 2.12-7.72 2.12-7.72zm20.1 44.398s-1.24 2.695-1.46 4.764c-0.23 2.128 0.03 3.896 0.74 5.791 1 2.646 2.7 3.734 2.7 3.734s0.34-2.379-1.43-6.947c0 0 2.66 2.945 3.2 6.771 0.3 2.16 1.03 10.91 5.2 10.09 0.25 2.527 0.21 3.966 0.18 6.711-6 4.017-8.46 11.392-4.67 17.112-1.66-6.31 1.34-11.41 4.81-13.647-0.68 12.547 1.33 22.657 7.94 26.137-4.09-4.57-5.94-14.3-5.52-23.971 0.37-8.424 0.06-12.983-1.52-18.246-0.52-1.934-1.39-3.982-2.37-5.518-2.35-3.677-5.96-7.263-6.85-8.757-1.2-2.007-0.95-4.024-0.95-4.024zm-51.64 9.336l-2.52 13.936s-1.34 7.222 4.69 13.576c4.94 4.158 8.26 3.228 6.94-0.223-1.33-3.454-4.26-10.627-4.92-17.934 3.19 7.307 6.95 18.433 14.3 24.625 0 0-3.97-5.44-0.27-12.035 1.3-2.313 1.44-4.203 1.35-5.66h-4.8c-1.75 0-3.19-1.306-3.4-2.994-3.05-0.812-3.75-3.597-4.86-5.9-1.64-3.414-5.69-3.161-6.51-7.391zm-4.33 2.604c-0.61-0.04-1.31 0.638-1.31 0.638s-0.15 1.247 0.51 1.559c0.13 0.062 0.77 0.39 0.9 0.453 0.66 0.312 1.57-0.574 1.57-0.574s0.15-1.246-0.51-1.557c-0.13-0.062-0.77-0.393-0.9-0.455-0.09-0.039-0.17-0.059-0.26-0.064zm-2.6 3.404c-0.62 0.054-1.2 0.83-1.2 0.83s0.06 1.251 0.76 1.459c0.14 0.042 2.05 0.631 2.19 0.672 0.7 0.208 1.46-0.805 1.46-0.805s-0.05-1.252-0.75-1.461c-0.14-0.041-2.06-0.629-2.2-0.67-0.09-0.026-0.17-0.033-0.26-0.025zm-13.735 2.228c-6.683 5.512-7.252 14.866-7.252 14.866 0.978-0.38 2.173-0.713 3.213-0.711 0 0 0.001-5.865 4.039-14.155zm12.115 1.719c-0.73-0.1-1.312 1.016-1.312 1.016s0.249 1.229 0.972 1.328c0.15 0.019 2.91 0.388 3.06 0.408 0.72 0.1 1.31-1.016 1.31-1.016s-0.25-1.229-0.98-1.328c-0.14-0.019-2.91-0.388-3.05-0.408zm78.33 1.9c0.01 0-1.05 0.716-0.97 1.42-0.04 0.141 1.41 10.512 1.49 10.653 0.11 0.704 1.41 0.799 1.41 0.799s1.15-0.718 1.03-1.422c-0.09-0.141-1.74-10.51-1.7-10.651-0.1-0.704-1.26-0.799-1.26-0.799zm-3.62 2s-1.1 0.718-1.04 1.422c-0.04 0.141 1.12 10.512 1.2 10.653 0.09 0.704 1.4 0.799 1.4 0.799s1.2-0.718 1.09-1.422c-0.08-0.141-1.44-10.51-1.4-10.651-0.08-0.704-1.25-0.801-1.25-0.801zm-72.09 0.278c-0.14 0.002-3.22 0.05-3.37 0.053-0.732 0.011-1.137 1.201-1.137 1.201s0.443 1.178 1.177 1.168c0.15-0.003 3.23-0.053 3.37-0.055 0.73-0.011 1.14-1.201 1.14-1.201s-0.44-1.178-1.18-1.166zm0.17 3.791c-0.14 0.024-3.18 0.537-3.32 0.562-0.723 0.122-0.933 1.36-0.933 1.36s0.623 1.097 1.343 0.974c0.15-0.024 3.18-0.54 3.33-0.564 0.72-0.122 0.93-1.36 0.93-1.36s-0.62-1.094-1.35-0.972zm1.03 3.683c-0.08-0.005-0.17 0.005-0.26 0.034-0.14 0.046-3.06 1.016-3.19 1.062-0.7 0.23-0.71 1.483-0.71 1.483s0.79 0.988 1.48 0.757c0.14-0.045 3.06-1.014 3.2-1.06 0.69-0.23 0.7-1.483 0.7-1.483s-0.6-0.757-1.22-0.793zm-20.55 3.319c-0.196 0.01-0.422 0.045-0.68 0.103-3.775 0.86-10.861 4.471-14.44 9.591-3.579 5.11-3.322 16.36-3.322 16.36s13.055 11.98 16.762 10.18c2.854-1.39 2.046-2.56 1.535-6.65 3.557-1.1 4.222-4.2 1.344-9.07 3.918-2.13 5.177-4.9 1.984-8.52-1.466-1.67-3.66-2.39-3.746-4.18-0.143-2.97 3.504-7.974 0.563-7.814zm-21.166 0.101c-0.347-0.017-0.645 0.048-0.645 0.049-0.001-0.002-0.75 1.041-0.355 1.707 0.051 0.187 3.343 5.617 3.453 5.687 0.417 0.62 1.597 0.28 1.597 0.28-0.001 0 0.699-1.02 0.289-1.63-0.108-0.07-3.352-5.459-3.402-5.643-0.194-0.33-0.59-0.432-0.937-0.45zm43.056 0.098c-0.09 0.008-0.17 0.033-0.25 0.074-0.13 0.067-2.86 1.465-2.99 1.531-0.65 0.333-0.46 1.57-0.46 1.57s0.93 0.86 1.58 0.53c0.13-0.07 2.86-1.466 2.99-1.533 0.65-0.333 0.46-1.574 0.46-1.574s-0.71-0.657-1.33-0.598zm-46.367 2.311c-0.347-0.008-0.644 0.069-0.644 0.07-0.001-0.003-0.733 1.094-0.327 1.774 0.034 0.23 4.625 7.37 4.756 7.4 0.434 0.61 1.603 0.21 1.602 0.21s0.67-1.07 0.246-1.68c-0.131-0.03-4.657-7.113-4.69-7.341-0.198-0.334-0.596-0.426-0.943-0.433zm48.517 0.934c-0.19 0-0.36 0.03-0.51 0.14-0.12 0.09-2.59 1.88-2.71 1.96-0.59 0.43-0.21 1.63-0.21 1.63s1.06 0.7 1.65 0.28c0.12-0.09 2.59-1.88 2.71-1.97 0.59-0.43 0.21-1.62 0.21-1.62s-0.6-0.4-1.14-0.42zm2.36 2.91c-0.18 0.02-0.35 0.08-0.47 0.21-0.11 0.1-2.27 2.25-2.37 2.36-0.51 0.51 0.05 1.63 0.05 1.63s1.16 0.54 1.67 0.03c0.11-0.11 2.27-2.26 2.37-2.36 0.52-0.51-0.05-1.63-0.05-1.63s-0.65-0.3-1.2-0.24zm-52.395 1.22c-0.346 0.01-0.64 0.1-0.64 0.1-0.001 0-0.697 1.15-0.272 1.81 0.038 0.24 5.043 7.49 5.178 7.51 0.452 0.6 1.606 0.13 1.606 0.13-0.001 0 0.633-1.12 0.189-1.71-0.136-0.02-5.069-7.22-5.105-7.45-0.209-0.33-0.609-0.4-0.956-0.39zm55.745 1.24c-0.36-0.01-0.77 0.05-0.98 0.34-0.09 0.11-1.89 2.56-1.97 2.68-0.43 0.58 0.31 1.61 0.31 1.61s1.23 0.35 1.66-0.23c0.08-0.12 1.88-2.57 1.96-2.68 0.43-0.59-0.31-1.61-0.31-1.61s-0.31-0.09-0.67-0.11zm3.62 1.97c-0.37-0.02-1.15 0.01-1.39 0.49-0.07 0.13-1.45 2.82-1.52 2.95-0.33 0.64 0.56 1.54 0.56 1.54s1.27 0.16 1.6-0.48c0.07-0.12 1.45-2.82 1.52-2.94 0.33-0.64-0.56-1.55-0.56-1.55s-0.08-0.01-0.21-0.01zm18.15 1.32s-1.02 0.76-0.79 1.44c0.05 0.13 1.01 3 1.06 3.13 0.23 0.68 1.51 0.71 1.51 0.71s1.02-0.77 0.79-1.45c-0.05-0.13-1.01-3-1.06-3.13-0.23-0.68-1.51-0.7-1.51-0.7zm-14.53 0.07s-1.28 0.03-1.5 0.71c-0.05 0.14-0.99 3.01-1.04 3.14-0.22 0.69 0.8 1.44 0.8 1.44s1.28-0.03 1.51-0.71c0.04-0.14 0.99-3.01 1.03-3.14 0.23-0.69-0.8-1.44-0.8-1.44zm10.95 0.79s-1.13 0.6-1.01 1.31c0.02 0.14 0.52 3.11 0.55 3.26 0.11 0.7 1.38 0.92 1.38 0.92s1.12-0.6 1-1.31c-0.02-0.14-0.52-3.12-0.54-3.26-0.12-0.7-1.38-0.92-1.38-0.92zm-7.36 0.05s-1.26 0.22-1.37 0.93c-0.02 0.14-0.5 3.12-0.52 3.26-0.12 0.71 1.01 1.3 1.01 1.3s1.26-0.22 1.38-0.93c0.02-0.14 0.5-3.12 0.52-3.26 0.11-0.71-1.02-1.3-1.02-1.3zm3.69 0.28s-1.21 0.42-1.21 1.13v3.31c0 0.71 1.21 1.13 1.21 1.13s1.21-0.42 1.21-1.13v-3.31c0-0.71-1.21-1.13-1.21-1.13zm-69.95 1.3c-0.449-0.02-0.901 0.16-0.9 0.16-0.002 0-0.648 1.19-0.196 1.83 0.059 0.2 4.633 6.21 4.758 6.24 0.474 0.58 1.606 0.04 1.606 0.04-0.001 0 0.591-1.17 0.126-1.74-0.124-0.03-4.635-5.99-4.691-6.19-0.167-0.24-0.434-0.32-0.703-0.34zm77.16 9.18c-2.08 0.23-4.17 0.38-6.26 0.45 1.33 1.13 2.27 2.34 2.28 3.4-2.4 2.87-4.83 5.64-7.28 8.3v-1.08c-1.46-0.04-2.92-0.12-4.37-0.24l-0.11 13.5c-0.62-0.05-1.25-0.11-1.87-0.18v0.01 0c0 1.05 0.94 2.43 2.3 3.7 2.11 0.16 4.23 0.24 6.34 0.24-1.37-1.17-2.32-2.47-2.33-3.53 0.01-2.48 0.02-4.95 0.02-7.43 1-1.08 1.99-2.18 2.99-3.3 0.54 1.16 1.09 2.32 1.64 3.47 1.59-0.04 3.19-0.13 4.78-0.27-1.04-2.27-2.08-4.55-3.11-6.85 1.91-2.19 3.8-4.44 5.67-6.76 0.54-0.07 1.07-0.14 1.61-0.21-0.03-1.06-0.97-2.19-2.3-3.22zm-15.21 0.26c-1.33 1.08-2.27 2.25-2.29 3.3 0.64 0.07 1.28 0.13 1.92 0.18 0 0.59-0.01 1.18-0.01 1.77 1.44 0.12 2.9 0.2 4.35 0.24v-1.78c0.01-1.06 0.95-2.29 2.27-3.47-2.08 0-4.16-0.08-6.24-0.24zm18.2 5.56c-1.11 0.16-2.22 0.3-3.34 0.42-1.04 1.27-2.09 2.52-3.14 3.76 1.82-0.13 3.65-0.31 5.46-0.55 0.99-0.13 2.3 0.61 3.21 1.5 1.71-0.3 3.42-0.65 5.12-1.06-1.48-2.04-4.82-4.18-7.31-4.07zm-22.34 0.22c-2.17-0.02-4.97 1.65-6.63 3.44-0.79 0.82-1.58 1.63-2.38 2.42 0.71 1.11 1.43 2.22 2.15 3.31 1.64 2.69 4.74 5.65 7.05 5.92 0.77 0.09 1.55 0.18 2.32 0.25 0.01-1.16 0.02-2.32 0.03-3.47-0.45-0.05-0.91-0.09-1.37-0.15-1.79-0.18-4.5-3.32-4.47-4.69 0.02-1.35 2.79-3.62 4.56-3.44 2.42 0.26 4.85 0.43 7.28 0.48 1.03-1.12 2.05-2.26 3.07-3.42-3.88 0.06-7.76-0.16-11.61-0.65zm29.75 7.88c-1.7 0.41-3.41 0.76-5.12 1.06-0.88 1.23-2.19 2.4-3.2 2.53-4.06 0.55-8.15 0.79-12.24 0.74-0.01 1.16-0.01 2.32-0.01 3.49 4.4 0.06 8.81-0.23 13.18-0.86 2.55-0.46 5.99-4.12 7.39-6.96zm-9.89 8.2c-1.54 0.18-3.09 0.31-4.64 0.4 0.3 0.63 0.61 1.26 0.92 1.88 0 1.05-0.95 2.4-2.32 3.63 2.03-0.09 4.05-0.24 6.06-0.47 1.41-1.33 2.38-2.75 2.39-3.81-0.51 0.07-1.02 0.14-1.54 0.2-0.29-0.61-0.58-1.22-0.87-1.83zm-132.48 33.42c2.2106 2.32 3.19 4.83 3.2364 6.93v18.38h9.3433v-8.97l8.549 8.97h12.129v-0.23l-13.09-13.12 11.166-11.73v-0.23h-11.894l-6.86 8.42v-8.42h-12.58zm49.791 0c1.02 1.07 1.899 2.19 2.559 3.28l-10.611 21.97v0.06h9.609l1.492-3.41h11.961l1.359 3.41h9.743v-0.06l-12.196-25.25h-13.916zm33.356 0c2.183 2.29 3.72 4.77 3.822 6.85v18.46h9.344v-13.32l12.056 13.32h9.22v-25.31h-13.17c2.19 2.3 3.73 4.78 3.82 6.87v5.36l-12.026-12.23h-13.066zm50.872 0c-0.97 0-1.74 0.31-2.32 0.91-0.57 0.61-0.86 1.42-0.86 2.44v6.52c0 0.67 0.12 1.2 0.36 1.61 0.25 0.41 0.71 0.71 1.4 0.91l18.19 5.5v1.06h-10.61v-1.4l-9.34-1.18v5.6c0 1.02 0.29 1.83 0.86 2.43 0.58 0.61 1.35 0.91 2.32 0.91h22.93c0.97 0 1.75-0.3 2.32-0.91 0.58-0.6 0.86-1.41 0.86-2.43v-6.56c0-0.66-0.13-1.21-0.38-1.64s-0.72-0.75-1.41-0.95l-18.16-5.43v-1.03h10.61v1.4l9.34 1.18v-5.69c0-1.02-0.28-1.81-0.83-2.39-0.55-0.57-1.31-0.86-2.28-0.86h-23zm44.39 0c1.02 1.07 1.89 2.19 2.55 3.28l-10.61 21.97v0.06h9.61l1.49-3.41h11.97l1.35 3.41h9.74v-0.06l-12.19-25.25h-13.91zm39.54 0c-0.97 0-1.74 0.31-2.32 0.91-0.57 0.61-0.86 1.42-0.86 2.44v6.52c0 0.67 0.12 1.2 0.36 1.61 0.25 0.41 0.71 0.71 1.4 0.91l18.19 5.5v1.06h-10.61v-1.4l-9.34-1.18v5.6c0 1.02 0.29 1.83 0.86 2.43 0.58 0.61 1.35 0.91 2.32 0.91h22.93c0.97 0 1.75-0.3 2.32-0.91 0.58-0.6 0.86-1.41 0.86-2.43v-6.56c0-0.66-0.13-1.21-0.38-1.64s-0.72-0.75-1.41-0.95l-18.16-5.43v-1.03h10.61v1.4l9.34 1.18v-5.69c0-1.02-0.27-1.81-0.83-2.39-0.55-0.57-1.31-0.86-2.28-0.86h-23zm-159.18 8.09l3.078 7.31 0.002 0.01h-0.643c-1.681 0.02-4.376 0.51-6.203 1.83l1.33-3.24c0.001 0 0.003-0.01 0.004-0.01l2.432-5.9zm128.61 0l3.08 7.31 0.01 0.01h-0.65c-1.68 0.02-4.37 0.51-6.2 1.83l1.33-3.24v-0.01l2.43-5.9zm-128.86 24.58c-0.971 0-1.728 0.31-2.27 0.91-0.541 0.61-0.81 1.42-0.81 2.44v18.62c0 1.02 0.269 1.83 0.81 2.44 0.542 0.6 1.299 0.91 2.27 0.91h24.388c0.972 0 1.74-0.31 2.303-0.91 0.564-0.61 0.844-1.42 0.844-2.44v-7.32l-9.344 1.18v2.63h-11.928v-11.6h11.928v2.63l9.344 1.18v-7.32c0-1.02-0.28-1.83-0.844-2.44-0.563-0.6-1.331-0.91-2.303-0.91h-24.388zm37.549 0c2.248 2.37 3.228 4.92 3.238 7.05v18.27h9.35v-25.32h-12.588zm23.948 0v7.19h10.67v18.13h9.35v-18.13h10.66v-7.19h-30.68zm40.56 0v0.23l12.06 16.34v8.75h9.34v-8.75l12.06-16.34v-0.23h-14.4c0.99 1.05 1.74 2.13 2.26 3.2l-4.59 6.87-6.72-10.07h-10.01z" transform="matrix(.8 0 0 -.8 147.75 421.52)" fill="#ffc72c"/><path d="m152.55 5.7988c-0.5-0.0076-1.14 0.4406-1.83 1.5293-1.05 1.6301-2.82 4.0389-5.16 6.9689-2.18 2.719-3.65 5.568-4.27 8.74 3.68-2.431 6.64-7.693 6.64-7.693s-1.35 6.625-6.96 10.693c-0.04 1.656 0.49 3.353 0.55 5.26 0.21 6.317-3.54 11.29-3.55 11.275-1.45-4.341-2.97-5.672-3.77-7.625-0.49-1.198-0.46-2.462 0.03-3.353-3.28-0.087-6.85 3.11-4.98 8.738 2.6 7.851-0.44 8.361 0.02 9.906 0.28 0.946 3.05 1.095 6 0.102 4.26-1.433 8.43-1.613 11.43-1.166 0 0-1.88-1.966-4.12-4.219l-1.17-1.185c-0.86-0.833-0.64-2.051 0.12-3.87 3.08-7.404 10.52-26.465 11.63-29.367 0.96-2.4906 0.5-4.7174-0.61-4.7342zm-36.84 12.215s2.39 3.993 2.07 7.722c-0.32 3.802-1.43 8.185 0.77 12.416 1.37-3.109 3.08-4.134 5.46-5.048 0-2.086-0.61-5.164-1.97-8.139-1.84-4.026-6.33-6.951-6.33-6.951zm63.67 34.41c-2.06 0.131-4 3.668-4 3.668-5.08-2.818-7.42 2.136-7.77 5.172-4.16-2.12-5.55 0.238-4.2 3.41 1.36 3.206 5.06 5.753 6.99 9.357 2.85 5.291 3.7 10.01 3.7 10.01s4.55-3.138 9.57-4.457c5.02-1.32 10.07-1.4 10.07-1.4-1.19-4.051-5.92-15.592-7.95-19.657-2.02-4.064-3.79-5.705-6-6.082-0.14-0.023-0.28-0.03-0.41-0.021zm-34.5 0.396l-5.51 3.336h-0.01s-1.28-1.695-2.09-2.32c-1.72-1.331-3.17-0.555-2.92 1.119 0.48 3.303 1.54 5.827 3.71 10.885 0.38 0.88 0.79 1.868 0.79 2.865 0 2.492-1.31 4.066-1.31 4.066s0.26-3.148-1.19-3.279c-0.35-0.033-0.99 0.257-1.75 0.711-1.63 0.89-3 1.793-3.81 2.365-0.54 0.378-1.38 0.956-1.5 1.604-0.22 1.304-0.08 3.706-0.08 6.154 0 2.191 5.43 2.174 6.75 1.817 1.02-0.272 1.73-0.906 2.01-2.223 0.4-1.863 1.42-3.543 2.97-4.647 1.73-1.224 3.53-2.737 3.94-4.601 0.62-2.866 0.06-16.502 0-17.852zm2.43 18.93c-0.83 4.23-4.87 3.977-6.52 7.391-1.05 2.195-2.13 4.739-4.79 5.695-0.12 1.787-1.6 3.199-3.42 3.199h-2.06c0.18 1.702-0.03 4.139-1.74 6.819-3.09 4.846 0.03 10.876 0.03 10.876 7.35-6.192 11.12-17.318 14.31-24.625-0.67 7.307-3.59 14.482-4.92 17.936-1.33 3.449 1.99 4.379 6.94 0.221 6.03-6.354 4.69-13.576 4.69-13.576l-2.52-13.936zm-82.101 5.133s5.699 1.947 7.992 7.996c2.099 5.537 1.465 13.23 1.465 13.23 1.038-0.636 2.027-1.187 2.959-1.638 0 0 0.855-5.473-1.768-12.262-2.901-7.511-10.648-7.326-10.648-7.326zm128.3 3.414s-0.93 0.717-0.76 1.422c-0.02 0.141 2.78 10.511 2.88 10.652 0.2 0.705 1.47 0.799 1.47 0.799 0.01 0 1.03-0.718 0.81-1.422-0.1-0.141-3.1-10.509-3.08-10.65-0.19-0.705-1.32-0.801-1.32-0.801zm-3.63 0.205s-0.96 0.717-0.81 1.422c-0.03 0.141 2.41 10.511 2.5 10.652 0.18 0.705 1.45 0.799 1.46 0.799 0 0 1.05-0.717 0.85-1.422-0.09-0.141-2.73-10.509-2.71-10.65-0.16-0.705-1.29-0.801-1.29-0.801zm-3.59 0.6c0.01 0-0.98 0.717-0.86 1.421-0.03 0.141 2.07 10.51 2.16 10.651 0.15 0.704 1.43 0.799 1.43 0.799s1.08-0.716 0.91-1.42c-0.09-0.141-2.39-10.512-2.36-10.653-0.14-0.704-1.28-0.798-1.28-0.798zm-32.35 0.617c-0.14 0.021-0.85 0.147-1 0.168-0.72 0.105-0.96 1.338-0.96 1.338s0.59 1.111 1.32 1.005c0.14-0.02 0.85-0.149 1-0.169 0.72-0.106 0.96-1.336 0.96-1.336s-0.59-1.111-1.32-1.006zm28.78 0.285s-1.02 0.715-0.92 1.42c-0.03 0.141 1.73 10.511 1.82 10.652 0.12 0.705 1.41 0.799 1.41 0.799s1.11-0.717 0.97-1.422c-0.09-0.141-2.05-10.509-2.02-10.65-0.12-0.705-1.26-0.799-1.26-0.799zm-54.35 1.332c-1.3 1.304-5.01 1.562-5.01 1.562s0 0.956 5.06 0.956c5.07 0 5.35-1.051 5.35-1.051s-4.29-0.291-5.4-1.467zm24.72 2.35c-0.73-0.008-1.16 1.173-1.16 1.173s0.41 1.187 1.14 1.194c0.14 0 2.15 0 2.3 0.002 0.73 0.006 1.17-1.174 1.17-1.174s-0.42-1.187-1.15-1.193c-0.15-0.001-2.15-0.002-2.3-0.002zm-0.14 3.791c-0.73-0.118-1.34 0.982-1.34 0.982s0.22 1.237 0.94 1.353c0.15 0.024 2.9 0.481 3.04 0.504 0.72 0.117 1.34-0.984 1.34-0.984s-0.22-1.234-0.94-1.352c-0.15-0.023-2.9-0.48-3.04-0.503zm-1 3.691c-0.62 0.04-1.22 0.801-1.22 0.801s0.02 1.254 0.72 1.478c0.14 0.046 3.06 0.993 3.2 1.037 0.7 0.226 1.48-0.767 1.48-0.767s-0.02-1.254-0.72-1.479c-0.14-0.045-3.06-0.993-3.2-1.039-0.09-0.028-0.18-0.037-0.26-0.031zm-65.358 2.254c1.783 2.739 0.031 4.858-0.824 7.248-0.322 0.9-0.802 3.19 1.453 2.83 2.11-0.33 3.525-0.49 5.89-0.42 0 0-0.851-8.894-6.519-9.658zm-19.891 0.351c-0.347-0.024-0.644 0.033-0.644 0.034 0-0.003-0.757 0.989-0.368 1.64 0.065 0.156 2.411 3.973 2.506 4.063 0.406 0.61 1.592 0.32 1.592 0.32s0.72-0.97 0.32-1.57c-0.092-0.1-2.41-3.879-2.472-4.035-0.192-0.322-0.587-0.427-0.934-0.452zm4.406 0.325c-0.346-0.027-0.644 0.024-0.644 0.025 0-0.002-0.756 0.938-0.365 1.563 0.075 0.128 0.946 1.511 1.027 1.628 0.397 0.607 1.586 0.358 1.586 0.36 0-0.003 0.733-0.922 0.344-1.522-0.081-0.117-0.939-1.487-1.014-1.615-0.192-0.309-0.587-0.413-0.934-0.439zm79.523 0.597c-0.61-0.054-1.32 0.608-1.32 0.608s-0.18 1.24 0.47 1.568c0.13 0.065 2.87 1.449 3 1.509 0.65 0.33 1.58-0.534 1.58-0.534s0.18-1.241-0.47-1.569c-0.13-0.065-2.87-1.446-3-1.511-0.08-0.041-0.17-0.063-0.26-0.071zm-2.12 3.262c-0.54 0.022-1.14 0.423-1.14 0.423s-0.37 1.2 0.22 1.62c0.12 0.09 2.61 1.86 2.73 1.95 0.59 0.42 1.64-0.29 1.64-0.29s0.37-1.2-0.22-1.62c-0.12-0.09-2.6-1.87-2.72-1.95-0.15-0.106-0.33-0.14-0.51-0.133zm-2.34 2.923c-0.55-0.06-1.2 0.25-1.2 0.25s-0.55 1.13-0.04 1.63c0.11 0.1 2.28 2.24 2.39 2.34 0.52 0.51 1.67-0.04 1.67-0.04s0.56-1.12 0.04-1.63c-0.1-0.1-2.28-2.24-2.39-2.34-0.12-0.13-0.29-0.19-0.47-0.21zm-3.33 2.49c-0.36 0.02-0.67 0.11-0.67 0.11s-0.73 1.03-0.3 1.61c0.09 0.11 1.9 2.55 1.99 2.67 0.43 0.58 1.65 0.21 1.65 0.21s0.73-1.03 0.3-1.6c-0.08-0.12-1.9-2.56-1.98-2.67-0.22-0.29-0.63-0.35-0.99-0.33zm-47.914 1.06c-2.227-0.09-6.653 0.8-6.653 0.8 5.442 5.86 1.451 8.49-0.544 10.42 3.121 6.08-0.177 8.48-1.889 9.41 0.584 2.37 0.677 3.89 0.453 4.88 0 0 1.253-0.55 3.838-1.92 5.931-3.19 4.555-6.59 4.555-6.59s-2.637 1.2-4.586 0.74c6.925-2.9 7.928-6.21 6.863-8.95-3.802 1.98-4.494 0.78-4.494 0.78s3.256-1.41 5.234-3.39c1.977-1.98-0.306-5.63-1.978-6.08-0.209-0.06-0.481-0.09-0.799-0.1zm44.304 0.93c-0.12 0.01-0.2 0.02-0.2 0.02s-0.89 0.9-0.55 1.54c0.06 0.13 1.47 2.81 1.54 2.94 0.33 0.64 1.6 0.46 1.6 0.46s0.88-0.9 0.55-1.54c-0.07-0.13-1.47-2.81-1.54-2.94-0.25-0.48-1.03-0.5-1.4-0.48zm24.29 8.25s-2.01 4.55-0.41 8.4c1.59 3.84 5.37 5.65 5.37 5.65-4.09-6.26-4.96-14.05-4.96-14.05z" transform="matrix(.8 0 0 -.8 147.75 421.52)" fill="#407ec9"/></g></g></svg>
